<?xml version="1.0" encoding="utf-8"?>
<!-- Generator: Adobe Illustrator 22.1.0, SVG Export Plug-In . SVG Version: 6.00 Build 0)  -->
<svg version="1.1" id="圖層_1" xmlns="http://www.w3.org/2000/svg" xmlns:xlink="http://www.w3.org/1999/xlink" x="0px" y="0px"
	 viewBox="0 0 220 37" style="enable-background:new 0 0 220 37;" xml:space="preserve">
<style type="text/css">
	.st0{fill:#FFFFFF;}
	.st1{opacity:0.4;fill:url(#SVGID_1_);}
	.st2{opacity:0.4;fill:url(#SVGID_2_);}
	.st3{opacity:0.4;fill:url(#SVGID_3_);}
</style>
<g>
	<g>
		<path class="st0" d="M26.9,12.4c0,0.4-0.1,1-0.3,1.8l-3.4,13.6c-0.3,1.3-0.6,2.2-0.9,2.6c-0.4,0.7-1.1,1-2,1c-0.9,0-1.6-0.3-2-1
			c-0.3-0.4-0.6-1.2-0.9-2.5l-3.3-12.1l-3.3,12.1c-0.3,1.3-0.6,2.1-0.9,2.5c-0.4,0.7-1.1,1-2,1s-1.5-0.3-2-1
			c-0.3-0.4-0.5-1.3-0.9-2.6L1.7,14.2c-0.2-0.8-0.3-1.5-0.3-1.8c0-0.5,0.2-0.9,0.6-1.2c0.3-0.4,0.8-0.6,1.4-0.6
			c0.7,0,1.2,0.3,1.5,0.8c0.2,0.3,0.4,1,0.6,2l2.7,11.8l3-11.1c0.4-1.4,0.7-2.4,1.1-2.8c0.4-0.5,1.1-0.8,1.9-0.8
			c0.8,0,1.5,0.3,1.9,0.8c0.3,0.4,0.7,1.4,1.1,2.8l3,11.1l2.7-11.8c0.2-0.8,0.3-1.3,0.4-1.5c0.1-0.4,0.3-0.7,0.5-0.8
			c0.4-0.3,0.8-0.4,1.2-0.4c0.6,0,1,0.2,1.4,0.6C26.7,11.5,26.9,11.9,26.9,12.4z"/>
		<path class="st0" d="M34.7,28.3c0,1.4-0.2,2.2-0.5,2.5c-0.4,0.4-0.9,0.6-1.4,0.6s-1-0.2-1.4-0.6c-0.3-0.3-0.5-1.1-0.5-2.5v-9.1
			c0-1.4,0.2-2.3,0.6-2.6c0.4-0.3,0.8-0.5,1.3-0.5c0.8,0,1.4,0.3,1.7,0.9c0.2,0.4,0.2,1.1,0.2,2.2V28.3z M34.6,12.5
			c0,0.5-0.2,0.9-0.6,1.3c-0.3,0.3-0.8,0.5-1.3,0.5s-0.9-0.2-1.3-0.5c-0.3-0.3-0.5-0.8-0.5-1.3c0-0.5,0.2-0.9,0.5-1.3
			c0.4-0.4,0.8-0.6,1.3-0.6s0.9,0.2,1.3,0.6C34.4,11.6,34.6,12,34.6,12.5z"/>
		<path class="st0" d="M52.8,12.5c0,0.4-0.2,0.8-0.5,1.1c-0.3,0.3-1,0.4-2.2,0.4h-7.4v5.2h6.1c1.1,0,1.8,0.2,2.1,0.5
			c0.3,0.3,0.5,0.7,0.5,1.1c0,0.5-0.2,0.9-0.6,1.2c-0.3,0.3-1,0.4-2,0.4h-6.1V28c0,1-0.1,1.8-0.2,2.2c-0.3,0.8-0.9,1.2-1.8,1.2
			c-0.9,0-1.5-0.4-1.8-1.2c-0.1-0.4-0.2-1.1-0.2-2.2V14.3c0-1,0-1.6,0.1-1.9c0.1-0.3,0.2-0.6,0.5-0.9c0.3-0.3,0.6-0.5,1-0.5
			c0.3-0.1,0.9-0.1,1.8-0.1h8.1c1.1,0,1.9,0.2,2.2,0.5C52.6,11.6,52.8,12,52.8,12.5z"/>
		<path class="st0" d="M68.8,29.9c0,0.4-0.2,0.7-0.5,1c-0.3,0.3-0.7,0.4-1.2,0.4c-0.8,0-1.6-0.7-2.4-2.1c-1.8,1.4-3.6,2.1-5.3,2.1
			c-1.7,0-3.1-0.5-4-1.5c-0.7-0.8-1.1-1.7-1.1-2.8c0-2.1,1.2-3.4,3.7-4.1c1.2-0.2,3.4-0.7,6.4-1.5c-0.1-1-0.2-1.6-0.4-2
			c-0.4-0.6-1.1-0.9-2.3-0.9c-1.7,0-2.8,0.5-3.4,1.4c-0.3,0.6-0.5,0.9-0.7,1.1c-0.3,0.3-0.6,0.4-1.1,0.4c-0.4,0-0.7-0.1-1-0.4
			c-0.3-0.3-0.5-0.6-0.5-1c0-1.2,0.7-2.3,2.1-3.1c1.1-0.6,2.6-1,4.5-1c2.7,0,4.5,0.5,5.5,1.6c0.8,0.9,1.2,2.3,1.1,4.4l-0.1,3.5
			c0,1.1,0.1,2.1,0.4,2.8C68.7,29.1,68.8,29.6,68.8,29.9z M64.5,23.8c-0.6,0.2-1.3,0.5-2.3,0.6c-1.5,0.3-2.6,0.6-3.1,0.9
			c-0.6,0.3-0.9,0.8-0.9,1.5c0,0.5,0.2,0.9,0.5,1.3c0.4,0.5,1.1,0.7,1.9,0.7c0.8,0,1.5-0.2,2.2-0.6c0.7-0.4,1.1-1,1.4-1.7
			C64.4,26.2,64.5,25.2,64.5,23.8z"/>
		<path class="st0" d="M85.1,26.8c0,1-0.5,1.9-1.6,2.9c-1.3,1.2-3,1.8-5.2,1.8c-2.8,0-4.9-0.9-6.2-2.8c-0.9-1.3-1.3-2.9-1.3-4.8
			c0-2.1,0.5-3.8,1.6-5.2c1.3-1.7,3.3-2.5,5.9-2.5c1.9,0,3.5,0.5,4.9,1.6c1.1,0.9,1.7,1.8,1.7,2.8c0,0.5-0.2,0.8-0.5,1.2
			c-0.3,0.3-0.7,0.4-1.2,0.4c-0.6,0-1-0.2-1.3-0.7c-0.5-0.8-1-1.4-1.4-1.7c-0.6-0.5-1.3-0.7-2.2-0.7c-1.3,0-2.3,0.6-3,1.7
			c-0.5,0.9-0.8,1.9-0.8,3.1c0,1.2,0.2,2.2,0.7,3.1c0.7,1.2,1.7,1.8,3,1.8c1.4,0,2.4-0.5,3.1-1.6c0.5-0.8,0.9-1.3,1-1.5
			c0.3-0.3,0.6-0.4,1-0.4c0.5,0,0.9,0.2,1.2,0.6C84.9,26.1,85.1,26.4,85.1,26.8z"/>
		<path class="st0" d="M96.6,29.6c0,1.2-1.3,1.8-3.9,1.8c-1.8,0-3-0.5-3.6-1.6c-0.4-0.6-0.6-1.8-0.6-3.4v-7.2h-0.5
			c-1.1,0-1.7-0.5-1.7-1.4c0-0.9,0.6-1.4,1.8-1.4h0.4v-2.3c0-1.2,0.1-2,0.3-2.3c0.3-0.6,0.9-0.9,1.6-0.9c0.7,0,1.3,0.3,1.6,0.9
			c0.2,0.4,0.3,1.1,0.3,2v2.6h0.7c0.8,0,1.4,0.1,1.7,0.2c0.4,0.2,0.6,0.6,0.6,1.1c0,0.9-0.8,1.4-2.3,1.4h-0.7v6.9
			c0,0.9,0,1.5,0.1,1.7c0.2,0.5,0.5,0.7,1.1,0.7c0.3,0,0.6,0,1-0.1c0.3-0.1,0.6-0.1,0.7-0.1c0.4,0,0.7,0.1,0.9,0.4
			C96.4,29,96.6,29.3,96.6,29.6z"/>
		<path class="st0" d="M111.8,23.8c0,2.2-0.7,4-2,5.4c-1.4,1.5-3.2,2.2-5.5,2.2c-2.6,0-4.6-0.8-5.9-2.5c-1.1-1.4-1.7-3.1-1.7-5.2
			c0-2.1,0.6-3.9,1.8-5.3c1.4-1.6,3.3-2.3,5.7-2.3s4.3,0.8,5.7,2.3C111.2,19.9,111.8,21.7,111.8,23.8z M108,23.8
			c0-1.5-0.3-2.7-1-3.6c-0.7-0.8-1.6-1.3-2.7-1.3c-1.1,0-2,0.4-2.7,1.3c-0.7,0.8-1,2-1,3.6c0,1.5,0.3,2.7,1,3.6
			c0.7,0.9,1.6,1.3,2.7,1.3c1.1,0,2-0.4,2.7-1.3C107.6,26.5,108,25.3,108,23.8z"/>
		<path class="st0" d="M124.7,18.3c0,0.5-0.2,0.8-0.5,1.2c-0.3,0.3-0.6,0.4-1,0.4c-0.2,0-0.6-0.1-1.1-0.2c-0.5-0.1-1-0.2-1.3-0.2
			c-1.1,0-1.8,0.7-2.3,2c-0.3,1-0.4,2.5-0.4,4.6v2.2c0,1.2-0.1,2-0.2,2.3c-0.3,0.6-0.9,0.9-1.6,0.9c-0.8,0-1.4-0.3-1.6-0.9
			c-0.2-0.4-0.2-1.1-0.2-2.2v-9.7c0-1.7,0.6-2.5,1.8-2.5c1.2,0,1.8,0.8,1.8,2.3c0.4-0.7,0.8-1.3,1.1-1.6c0.6-0.5,1.3-0.8,2.1-0.8
			c0.6,0,1.3,0.1,2,0.4C124.2,17,124.7,17.6,124.7,18.3z"/>
		<path class="st0" d="M140.5,17.7c0,0.4-0.1,1-0.4,1.8l-4.9,12.9c-0.7,1.7-1.3,2.8-1.8,3.4c-0.8,0.8-2.1,1.2-3.8,1.2
			c-2.2,0-3.3-0.6-3.3-1.7c0-0.3,0.1-0.6,0.4-0.9c0.2-0.2,0.6-0.4,1-0.4c0.1,0,0.3,0,0.7,0.1c0.3,0,0.6,0,0.6,0
			c0.7,0,1.2-0.2,1.6-0.6c0.3-0.3,0.6-0.8,0.9-1.7l0.3-0.8l-4.6-11.7c-0.3-0.7-0.4-1.2-0.4-1.6c0-0.4,0.2-0.8,0.5-1.2
			c0.3-0.3,0.8-0.5,1.3-0.5c0.8,0,1.5,0.7,2,2l3.2,9.2l3-8.6c0.4-1.1,0.7-1.8,0.9-2.1c0.3-0.4,0.7-0.6,1.3-0.6c0.6,0,1,0.2,1.3,0.6
			C140.3,17,140.5,17.4,140.5,17.7z"/>
	</g>
	<g>
		<g>
			<path class="st0" d="M194.8,10.2c-1-2.6-2.6-4.9-4.7-6.6c-2.1-1.7-4.6-2.7-7.3-3.1c-6.1-1-12.9,0.2-17,5.1
				c-2.8,3.3-4.1,7.6-4.1,13c0,4.8,1.2,8.8,3.6,12c1.9,2.5,4.6,4.3,7.5,5.3c3,1,6.7,1.5,9.8,1.1c1.8-0.3,3.6-1.4,3.6-3.4
				c0-1.2-0.6-2.2-1.6-2.7c-0.1-0.1-0.2-0.1-0.3-0.2c0,0-0.1,0-0.1-0.1c-0.5-0.2-1.2-0.3-1.8-0.2c0,0,0,0-0.1,0
				c-1.4,0.3-2.6,0.4-4.1,0.3c-3.2-0.2-6-1.6-7.6-4.4c-1.1-2.1-1.7-4.7-1.7-7.8c0-2,0.2-4.1,0.9-6c2-5.9,9.3-8.5,14.5-4.9
				c3.2,2.2,5.1,6.2,4.9,10.1c0,0.2,0,0.4,0,0.6c0,0,0,0,0,0c-0.4,4.1,5.5,5.4,6.6,1.4c0.8-2.9-0.1-7-0.6-8.9
				C194.9,10.5,194.9,10.3,194.8,10.2z"/>
			<path class="st0" d="M214.8,0c-2.1,0-4.3,0-6.4,0c-0.9,0-1.8,0-2.7,0c-0.9,0.1-1.8-0.1-2.8,0.2c-1.7,0.4-2.6,1.7-2.6,3.4
				c0,0,0,0.1,0,0.1c0,0,0,9.5,0,9.5v16.9c0,2.2,0.1,3.6,0.4,4.1c0.5,1.2,1.6,1.8,3.2,1.8c0.9,0,1.7-0.3,2.5-1
				c0.7-0.6,1.1-2.3,1.1-4.9v-23c0.7,0,1.5,0,2.2,0c1.7,0,3.5,0,5.2,0c2.1,0,3.8-1.6,3.8-3.5C218.6,1.6,216.9,0,214.8,0z"/>
			<path class="st0" d="M153.8,0.1L153.8,0.1c-2,0-3.6,1.6-3.6,3.6v29.2c0,2,1.6,3.6,3.6,3.6l0,0c2,0,3.6-1.6,3.6-3.6V3.6
				C157.4,1.7,155.8,0.1,153.8,0.1z"/>
		</g>
		<linearGradient id="SVGID_1_" gradientUnits="userSpaceOnUse" x1="161.6662" y1="18.5089" x2="195.9194" y2="18.5089">
			<stop  offset="0" style="stop-color:#FFFFFF"/>
			<stop  offset="1" style="stop-color:#808080"/>
		</linearGradient>
		<path class="st1" d="M194.8,10.1c-1-2.6-2.6-4.9-4.7-6.6c-2.1-1.7-4.6-2.7-7.3-3.1c-6.1-1-12.9,0.2-17,5.1
			c-2.8,3.3-4.1,7.6-4.1,13c0,4.8,1.2,8.8,3.6,12c1.9,2.5,4.6,4.3,7.5,5.3c3,1,6.7,1.5,9.8,1.1c1.8-0.3,3.6-1.4,3.6-3.4
			c0-1.2-0.6-2.2-1.6-2.7c-0.1-0.1-0.2-0.1-0.3-0.2c0,0-0.1,0-0.1-0.1c-0.5-0.2-1.2-0.3-1.8-0.2c0,0,0,0-0.1,0
			c-1.4,0.3-2.6,0.4-4.1,0.3c-3.2-0.2-6-1.6-7.6-4.4c-1.1-2.1-1.7-4.7-1.7-7.8c0-2,0.2-4.1,0.9-6c2-5.9,9.3-8.5,14.5-4.9
			c3.2,2.2,5.1,6.2,4.9,10.1c0,0.2,0,0.4,0,0.6c0,0,0,0,0,0c-0.4,4.1,5.5,5.4,6.6,1.4c0.8-2.9-0.1-7-0.6-8.9
			C194.9,10.5,194.8,10.3,194.8,10.1z"/>
		<linearGradient id="SVGID_2_" gradientUnits="userSpaceOnUse" x1="200.3159" y1="17.9967" x2="218.6024" y2="17.9967">
			<stop  offset="0" style="stop-color:#FFFFFF"/>
			<stop  offset="1" style="stop-color:#808080"/>
		</linearGradient>
		<path class="st2" d="M214.8,0c-2.1,0-4.3,0-6.4,0c-0.9,0-1.8,0-2.7,0c-0.9,0.1-1.8-0.1-2.8,0.2c-1.7,0.4-2.6,1.7-2.6,3.4
			c0,0,0,0.1,0,0.1c0,0,0,9.5,0,9.5v16.9c0,2.2,0.1,3.6,0.4,4.1c0.5,1.2,1.6,1.8,3.2,1.8c0.9,0,1.7-0.3,2.5-1
			c0.7-0.6,1.1-2.3,1.1-4.9v-23c0.7,0,1.5,0,2.2,0c1.7,0,3.5,0,5.2,0c2.1,0,3.8-1.6,3.8-3.5C218.6,1.6,216.9,0,214.8,0z"/>
		<linearGradient id="SVGID_3_" gradientUnits="userSpaceOnUse" x1="153.7669" y1="36.4245" x2="153.7669" y2="3.393377e-02">
			<stop  offset="0" style="stop-color:#FFFFFF"/>
			<stop  offset="1" style="stop-color:#808080"/>
		</linearGradient>
		<path class="st3" d="M153.8,0L153.8,0c-2,0-3.6,1.6-3.6,3.6v29.2c0,2,1.6,3.6,3.6,3.6l0,0c2,0,3.6-1.6,3.6-3.6V3.6
			C157.4,1.6,155.7,0,153.8,0z"/>
	</g>
</g>
</svg>
