<svg id="圖層_1" data-name="圖層 1" xmlns="http://www.w3.org/2000/svg" xmlns:xlink="http://www.w3.org/1999/xlink" viewBox="0 0 871.84 576.65"><defs><style>.cls-1{mask:url(#mask);}.cls-10,.cls-12,.cls-14,.cls-16,.cls-18,.cls-2,.cls-20,.cls-22,.cls-24,.cls-4,.cls-6,.cls-8{mix-blend-mode:multiply;}.cls-2{fill:url(#linear-gradient);}.cls-3{mask:url(#mask-2);}.cls-4{fill:url(#linear-gradient-2);}.cls-5{mask:url(#mask-3);}.cls-6{fill:url(#linear-gradient-3);}.cls-7{mask:url(#mask-4);}.cls-8{fill:url(#linear-gradient-4);}.cls-9{mask:url(#mask-5);}.cls-10{fill:url(#linear-gradient-5);}.cls-11{mask:url(#mask-6);}.cls-12{fill:url(#linear-gradient-6);}.cls-13{mask:url(#mask-7);}.cls-14{fill:url(#linear-gradient-7);}.cls-15{mask:url(#mask-8);}.cls-16{fill:url(#linear-gradient-8);}.cls-17{mask:url(#mask-9);}.cls-18{fill:url(#linear-gradient-9);}.cls-19{mask:url(#mask-10);}.cls-20{fill:url(#linear-gradient-10);}.cls-21{mask:url(#mask-11);}.cls-22{fill:url(#linear-gradient-11);}.cls-23{mask:url(#mask-12);}.cls-24{fill:url(#linear-gradient-12);}.cls-25{opacity:0.54;}.cls-26{mask:url(#mask-13);}.cls-27{opacity:0.36;fill:url(#linear-gradient-13);}.cls-28{mask:url(#mask-14);}.cls-29{fill:url(#linear-gradient-14);}.cls-30{mask:url(#mask-15);}.cls-31{fill:url(#linear-gradient-15);}.cls-32{mask:url(#mask-16);}.cls-33{fill:url(#linear-gradient-16);}.cls-34{mask:url(#mask-17);}.cls-35{fill:url(#linear-gradient-17);}.cls-36{mask:url(#mask-18);}.cls-37{fill:url(#linear-gradient-18);}.cls-38{mask:url(#mask-19);}.cls-39{fill:url(#linear-gradient-19);}.cls-40{mask:url(#mask-20);}.cls-41{fill:url(#linear-gradient-20);}.cls-42{mask:url(#mask-21);}.cls-43{fill:url(#linear-gradient-21);}.cls-44{mask:url(#mask-22);}.cls-45{fill:url(#linear-gradient-22);}.cls-46{mask:url(#mask-23);}.cls-47{fill:url(#linear-gradient-23);}.cls-48{mask:url(#mask-24);}.cls-49{fill:url(#linear-gradient-24);}.cls-50{filter:url(#luminosity-noclip-24);}.cls-51{filter:url(#luminosity-noclip-23);}.cls-52{filter:url(#luminosity-noclip-22);}.cls-53{filter:url(#luminosity-noclip-21);}.cls-54{filter:url(#luminosity-noclip-20);}.cls-55{filter:url(#luminosity-noclip-19);}.cls-56{filter:url(#luminosity-noclip-18);}.cls-57{filter:url(#luminosity-noclip-17);}.cls-58{filter:url(#luminosity-noclip-16);}.cls-59{filter:url(#luminosity-noclip-15);}.cls-60{filter:url(#luminosity-noclip-14);}.cls-61{filter:url(#luminosity-noclip-13);}.cls-62{filter:url(#luminosity-noclip-12);}.cls-63{filter:url(#luminosity-noclip-11);}.cls-64{filter:url(#luminosity-noclip-10);}.cls-65{filter:url(#luminosity-noclip-9);}.cls-66{filter:url(#luminosity-noclip-8);}.cls-67{filter:url(#luminosity-noclip-7);}.cls-68{filter:url(#luminosity-noclip-6);}.cls-69{filter:url(#luminosity-noclip-5);}.cls-70{filter:url(#luminosity-noclip-4);}.cls-71{filter:url(#luminosity-noclip-3);}.cls-72{filter:url(#luminosity-noclip-2);}.cls-73{filter:url(#luminosity-noclip);}</style><filter id="luminosity-noclip" x="79.62" y="-8480" width="743.12" height="32766" filterUnits="userSpaceOnUse" color-interpolation-filters="sRGB"><feFlood flood-color="#fff" result="bg"/><feBlend in="SourceGraphic" in2="bg"/></filter><mask id="mask" x="79.62" y="-8480" width="743.12" height="32766" maskUnits="userSpaceOnUse"><g class="cls-73"/></mask><linearGradient id="linear-gradient" x1="79.62" y1="288.67" x2="822.74" y2="288.67" gradientUnits="userSpaceOnUse"><stop offset="0" stop-color="#666"/><stop offset="1"/></linearGradient><filter id="luminosity-noclip-2" x="472.96" y="-8480" width="263.64" height="32766" filterUnits="userSpaceOnUse" color-interpolation-filters="sRGB"><feFlood flood-color="#fff" result="bg"/><feBlend in="SourceGraphic" in2="bg"/></filter><mask id="mask-2" x="472.96" y="-8480" width="263.64" height="32766" maskUnits="userSpaceOnUse"><g class="cls-72"/></mask><linearGradient id="linear-gradient-2" x1="472.96" y1="490.4" x2="736.6" y2="490.4" gradientUnits="userSpaceOnUse"><stop offset="0"/><stop offset="1" stop-color="#666"/></linearGradient><filter id="luminosity-noclip-3" x="364.96" y="-8480" width="507.04" height="32766" filterUnits="userSpaceOnUse" color-interpolation-filters="sRGB"><feFlood flood-color="#fff" result="bg"/><feBlend in="SourceGraphic" in2="bg"/></filter><mask id="mask-3" x="364.96" y="-8480" width="507.04" height="32766" maskUnits="userSpaceOnUse"><g class="cls-71"/></mask><linearGradient id="linear-gradient-3" x1="364.96" y1="329.05" x2="872" y2="329.05" xlink:href="#linear-gradient"/><filter id="luminosity-noclip-4" x="342.37" y="-8480" width="211.18" height="32766" filterUnits="userSpaceOnUse" color-interpolation-filters="sRGB"><feFlood flood-color="#fff" result="bg"/><feBlend in="SourceGraphic" in2="bg"/></filter><mask id="mask-4" x="342.37" y="-8480" width="211.18" height="32766" maskUnits="userSpaceOnUse"><g class="cls-70"/></mask><linearGradient id="linear-gradient-4" x1="342.37" y1="151.81" x2="553.55" y2="151.81" xlink:href="#linear-gradient"/><filter id="luminosity-noclip-5" x="643.86" y="-8480" width="211.18" height="32766" filterUnits="userSpaceOnUse" color-interpolation-filters="sRGB"><feFlood flood-color="#fff" result="bg"/><feBlend in="SourceGraphic" in2="bg"/></filter><mask id="mask-5" x="643.86" y="-8480" width="211.18" height="32766" maskUnits="userSpaceOnUse"><g class="cls-69"/></mask><linearGradient id="linear-gradient-5" x1="643.86" y1="474.84" x2="855.04" y2="474.84" xlink:href="#linear-gradient"/><filter id="luminosity-noclip-6" x="156.63" y="-8480" width="211.18" height="32766" filterUnits="userSpaceOnUse" color-interpolation-filters="sRGB"><feFlood flood-color="#fff" result="bg"/><feBlend in="SourceGraphic" in2="bg"/></filter><mask id="mask-6" x="156.63" y="-8480" width="211.18" height="32766" maskUnits="userSpaceOnUse"><g class="cls-68"/></mask><linearGradient id="linear-gradient-6" x1="156.63" y1="337.55" x2="367.81" y2="337.55" xlink:href="#linear-gradient"/><filter id="luminosity-noclip-7" x="314.08" y="-8480" width="422.52" height="32766" filterUnits="userSpaceOnUse" color-interpolation-filters="sRGB"><feFlood flood-color="#fff" result="bg"/><feBlend in="SourceGraphic" in2="bg"/></filter><mask id="mask-7" x="314.08" y="-8480" width="422.52" height="32766" maskUnits="userSpaceOnUse"><g class="cls-67"/></mask><linearGradient id="linear-gradient-7" x1="314.08" y1="273.73" x2="736.6" y2="273.73" xlink:href="#linear-gradient"/><filter id="luminosity-noclip-8" x="0.16" y="-8480" width="181.92" height="32766" filterUnits="userSpaceOnUse" color-interpolation-filters="sRGB"><feFlood flood-color="#fff" result="bg"/><feBlend in="SourceGraphic" in2="bg"/></filter><mask id="mask-8" x="0.16" y="-8480" width="181.92" height="32766" maskUnits="userSpaceOnUse"><g class="cls-66"/></mask><linearGradient id="linear-gradient-8" x1="0.16" y1="508.65" x2="182.07" y2="508.65" xlink:href="#linear-gradient"/><filter id="luminosity-noclip-9" x="222.69" y="-8480" width="402.09" height="32766" filterUnits="userSpaceOnUse" color-interpolation-filters="sRGB"><feFlood flood-color="#fff" result="bg"/><feBlend in="SourceGraphic" in2="bg"/></filter><mask id="mask-9" x="222.69" y="-8480" width="402.09" height="32766" maskUnits="userSpaceOnUse"><g class="cls-65"/></mask><linearGradient id="linear-gradient-9" x1="222.69" y1="235.26" x2="624.78" y2="235.26" xlink:href="#linear-gradient"/><filter id="luminosity-noclip-10" x="176.91" y="-8480" width="209.75" height="32766" filterUnits="userSpaceOnUse" color-interpolation-filters="sRGB"><feFlood flood-color="#fff" result="bg"/><feBlend in="SourceGraphic" in2="bg"/></filter><mask id="mask-10" x="176.91" y="-8480" width="209.75" height="32766" maskUnits="userSpaceOnUse"><g class="cls-64"/></mask><linearGradient id="linear-gradient-10" x1="176.91" y1="517.32" x2="386.66" y2="517.32" xlink:href="#linear-gradient-2"/><filter id="luminosity-noclip-11" x="443.29" y="-8480" width="422.52" height="32766" filterUnits="userSpaceOnUse" color-interpolation-filters="sRGB"><feFlood flood-color="#fff" result="bg"/><feBlend in="SourceGraphic" in2="bg"/></filter><mask id="mask-11" x="443.29" y="-8480" width="422.52" height="32766" maskUnits="userSpaceOnUse"><g class="cls-63"/></mask><linearGradient id="linear-gradient-11" x1="443.29" y1="198.36" x2="865.81" y2="198.36" xlink:href="#linear-gradient"/><filter id="luminosity-noclip-12" x="669.41" y="-8480" width="202.59" height="32766" filterUnits="userSpaceOnUse" color-interpolation-filters="sRGB"><feFlood flood-color="#fff" result="bg"/><feBlend in="SourceGraphic" in2="bg"/></filter><mask id="mask-12" x="669.41" y="-8480" width="202.59" height="32766" maskUnits="userSpaceOnUse"><g class="cls-62"/></mask><linearGradient id="linear-gradient-12" x1="669.41" y1="279.28" x2="872" y2="279.28" xlink:href="#linear-gradient"/><filter id="luminosity-noclip-13" x="79.62" y="0.35" width="743.12" height="576.65" filterUnits="userSpaceOnUse" color-interpolation-filters="sRGB"><feFlood flood-color="#fff" result="bg"/><feBlend in="SourceGraphic" in2="bg"/></filter><mask id="mask-13" x="79.46" y="0" width="743.12" height="576.65" maskUnits="userSpaceOnUse"><g class="cls-61"><g transform="translate(-0.16 -0.35)"><g class="cls-1"><polygon class="cls-2" points="822.74 0.35 365.39 457.64 246.03 577 79.62 577 656.38 0.35 822.74 0.35"/></g></g></g></mask><linearGradient id="linear-gradient-13" x1="79.46" y1="288.33" x2="822.58" y2="288.33" gradientUnits="userSpaceOnUse"><stop offset="0" stop-color="#fff"/><stop offset="1" stop-color="#b7e793"/></linearGradient><filter id="luminosity-noclip-14" x="314.08" y="107.68" width="422.52" height="332.12" filterUnits="userSpaceOnUse" color-interpolation-filters="sRGB"><feFlood flood-color="#fff" result="bg"/><feBlend in="SourceGraphic" in2="bg"/></filter><mask id="mask-14" x="313.93" y="107.33" width="422.52" height="332.12" maskUnits="userSpaceOnUse"><g class="cls-60"><g transform="translate(-0.16 -0.35)"><g class="cls-13"><polygon class="cls-14" points="736.6 107.68 404.48 439.79 314.08 439.79 646.23 107.68 736.6 107.68"/></g></g></g></mask><linearGradient id="linear-gradient-14" x1="313.93" y1="273.39" x2="736.44" y2="273.39" xlink:href="#linear-gradient-13"/><filter id="luminosity-noclip-15" x="176.91" y="457.64" width="209.75" height="119.36" filterUnits="userSpaceOnUse" color-interpolation-filters="sRGB"><feFlood flood-color="#fff" result="bg"/><feBlend in="SourceGraphic" in2="bg"/></filter><mask id="mask-15" x="176.75" y="457.29" width="209.75" height="119.36" maskUnits="userSpaceOnUse"><g class="cls-59"><g transform="translate(-0.16 -0.35)"><g class="cls-19"><polygon class="cls-20" points="386.66 457.64 267.3 577 176.91 577 296.26 457.64 386.66 457.64"/></g></g></g></mask><linearGradient id="linear-gradient-15" x1="176.75" y1="516.97" x2="386.5" y2="516.97" gradientUnits="userSpaceOnUse"><stop offset="0" stop-color="#b7e793"/><stop offset="1" stop-color="#fff"/></linearGradient><filter id="luminosity-noclip-16" x="443.29" y="32.3" width="422.52" height="332.12" filterUnits="userSpaceOnUse" color-interpolation-filters="sRGB"><feFlood flood-color="#fff" result="bg"/><feBlend in="SourceGraphic" in2="bg"/></filter><mask id="mask-16" x="443.14" y="31.96" width="422.52" height="332.12" maskUnits="userSpaceOnUse"><g class="cls-58"><g transform="translate(-0.16 -0.35)"><g class="cls-21"><polygon class="cls-22" points="865.81 32.3 533.69 364.42 443.29 364.42 775.44 32.3 865.81 32.3"/></g></g></g></mask><linearGradient id="linear-gradient-16" x1="443.14" y1="198.01" x2="865.65" y2="198.01" xlink:href="#linear-gradient-13"/><filter id="luminosity-noclip-17" x="669.41" y="178.01" width="202.59" height="202.54" filterUnits="userSpaceOnUse" color-interpolation-filters="sRGB"><feFlood flood-color="#fff" result="bg"/><feBlend in="SourceGraphic" in2="bg"/></filter><mask id="mask-17" x="669.25" y="177.66" width="202.59" height="202.54" maskUnits="userSpaceOnUse"><g class="cls-57"><g transform="translate(-0.16 -0.35)"><g class="cls-23"><polygon class="cls-24" points="872 178.01 872 268.35 759.8 380.55 669.41 380.55 872 178.01"/></g></g></g></mask><linearGradient id="linear-gradient-17" x1="669.25" y1="278.93" x2="871.84" y2="278.93" xlink:href="#linear-gradient-13"/><filter id="luminosity-noclip-18" x="472.96" y="403.81" width="263.64" height="173.19" filterUnits="userSpaceOnUse" color-interpolation-filters="sRGB"><feFlood flood-color="#fff" result="bg"/><feBlend in="SourceGraphic" in2="bg"/></filter><mask id="mask-18" x="472.8" y="403.46" width="263.64" height="173.19" maskUnits="userSpaceOnUse"><g class="cls-56"><g transform="translate(-0.16 -0.35)"><g class="cls-3"><polygon class="cls-4" points="736.6 403.81 563.35 577 472.96 577 646.21 403.81 736.6 403.81"/></g></g></g></mask><linearGradient id="linear-gradient-18" x1="472.8" y1="490.05" x2="736.44" y2="490.05" xlink:href="#linear-gradient-15"/><filter id="luminosity-noclip-19" x="364.96" y="81.1" width="507.04" height="495.9" filterUnits="userSpaceOnUse" color-interpolation-filters="sRGB"><feFlood flood-color="#fff" result="bg"/><feBlend in="SourceGraphic" in2="bg"/></filter><mask id="mask-19" x="364.8" y="80.76" width="507.04" height="495.9" maskUnits="userSpaceOnUse"><g class="cls-55"><g transform="translate(-0.16 -0.35)"><g class="cls-5"><polygon class="cls-6" points="872 81.1 872 236.43 727.88 380.55 704.57 403.81 531.37 577 364.96 577 860.96 81.1 872 81.1"/></g></g></g></mask><linearGradient id="linear-gradient-19" x1="364.8" y1="328.7" x2="871.84" y2="328.7" xlink:href="#linear-gradient-13"/><filter id="luminosity-noclip-20" x="342.37" y="68.81" width="211.18" height="166" filterUnits="userSpaceOnUse" color-interpolation-filters="sRGB"><feFlood flood-color="#fff" result="bg"/><feBlend in="SourceGraphic" in2="bg"/></filter><mask id="mask-20" x="342.22" y="68.47" width="211.18" height="166" maskUnits="userSpaceOnUse"><g class="cls-54"><g transform="translate(-0.16 -0.35)"><g class="cls-7"><polygon class="cls-8" points="553.55 68.81 387.56 234.81 342.37 234.81 508.38 68.81 553.55 68.81"/></g></g></g></mask><linearGradient id="linear-gradient-20" x1="342.22" y1="151.46" x2="553.39" y2="151.46" xlink:href="#linear-gradient-13"/><filter id="luminosity-noclip-21" x="643.86" y="391.84" width="211.18" height="166" filterUnits="userSpaceOnUse" color-interpolation-filters="sRGB"><feFlood flood-color="#fff" result="bg"/><feBlend in="SourceGraphic" in2="bg"/></filter><mask id="mask-21" x="643.7" y="391.49" width="211.18" height="166" maskUnits="userSpaceOnUse"><g class="cls-53"><g transform="translate(-0.16 -0.35)"><g class="cls-9"><polygon class="cls-10" points="855.04 391.84 689.04 557.83 643.86 557.83 809.87 391.84 855.04 391.84"/></g></g></g></mask><linearGradient id="linear-gradient-21" x1="643.7" y1="474.49" x2="854.88" y2="474.49" xlink:href="#linear-gradient-13"/><filter id="luminosity-noclip-22" x="156.63" y="254.55" width="211.18" height="166" filterUnits="userSpaceOnUse" color-interpolation-filters="sRGB"><feFlood flood-color="#fff" result="bg"/><feBlend in="SourceGraphic" in2="bg"/></filter><mask id="mask-22" x="156.48" y="254.2" width="211.18" height="166" maskUnits="userSpaceOnUse"><g class="cls-52"><g transform="translate(-0.16 -0.35)"><g class="cls-11"><polygon class="cls-12" points="367.81 254.55 201.82 420.55 156.63 420.55 322.64 254.55 367.81 254.55"/></g></g></g></mask><linearGradient id="linear-gradient-22" x1="156.48" y1="337.2" x2="367.66" y2="337.2" xlink:href="#linear-gradient-13"/><filter id="luminosity-noclip-23" x="0.16" y="440.31" width="181.92" height="136.69" filterUnits="userSpaceOnUse" color-interpolation-filters="sRGB"><feFlood flood-color="#fff" result="bg"/><feBlend in="SourceGraphic" in2="bg"/></filter><mask id="mask-23" x="0" y="439.96" width="181.92" height="136.69" maskUnits="userSpaceOnUse"><g class="cls-51"><g transform="translate(-0.16 -0.35)"><g class="cls-15"><polygon class="cls-16" points="182.07 440.31 45.38 577 0.16 577 136.9 440.31 182.07 440.31"/></g></g></g></mask><linearGradient id="linear-gradient-23" x1="0" y1="508.31" x2="181.92" y2="508.31" xlink:href="#linear-gradient-13"/><filter id="luminosity-noclip-24" x="222.69" y="77.23" width="402.09" height="316.06" filterUnits="userSpaceOnUse" color-interpolation-filters="sRGB"><feFlood flood-color="#fff" result="bg"/><feBlend in="SourceGraphic" in2="bg"/></filter><mask id="mask-24" x="222.53" y="76.88" width="402.09" height="316.06" maskUnits="userSpaceOnUse"><g class="cls-50"><g transform="translate(-0.16 -0.35)"><g class="cls-17"><polygon class="cls-18" points="624.78 77.23 308.72 393.29 222.69 393.29 538.78 77.23 624.78 77.23"/></g></g></g></mask><linearGradient id="linear-gradient-24" x1="222.53" y1="234.91" x2="624.63" y2="234.91" xlink:href="#linear-gradient-13"/></defs><title>Login R</title><g class="cls-25"><g class="cls-26"><polygon class="cls-27" points="822.58 0 365.23 457.3 245.88 576.65 79.46 576.65 656.22 0 822.58 0"/></g><g class="cls-28"><polygon class="cls-29" points="736.44 107.33 404.33 439.44 313.93 439.44 646.07 107.33 736.44 107.33"/></g><g class="cls-30"><polygon class="cls-31" points="386.5 457.3 267.14 576.65 176.75 576.65 296.11 457.3 386.5 457.3"/></g><g class="cls-32"><polygon class="cls-33" points="865.65 31.96 533.54 364.07 443.14 364.07 775.28 31.96 865.65 31.96"/></g><g class="cls-34"><polygon class="cls-35" points="871.84 177.66 871.84 268 759.65 380.2 669.25 380.2 871.84 177.66"/></g><g class="cls-36"><polygon class="cls-37" points="736.44 403.46 563.19 576.65 472.8 576.65 646.05 403.46 736.44 403.46"/></g><g class="cls-38"><polygon class="cls-39" points="871.84 80.76 871.84 236.08 727.72 380.2 704.41 403.46 531.21 576.65 364.8 576.65 860.81 80.76 871.84 80.76"/></g><g class="cls-40"><polygon class="cls-41" points="553.39 68.47 387.4 234.46 342.21 234.46 508.23 68.47 553.39 68.47"/></g><g class="cls-42"><polygon class="cls-43" points="854.88 391.49 688.89 557.49 643.71 557.49 809.72 391.49 854.88 391.49"/></g><g class="cls-44"><polygon class="cls-45" points="367.66 254.21 201.66 420.2 156.48 420.2 322.49 254.21 367.66 254.21"/></g><g class="cls-46"><polygon class="cls-47" points="181.92 439.96 45.22 576.65 0 576.65 136.75 439.96 181.92 439.96"/></g><g class="cls-48"><polygon class="cls-49" points="624.63 76.88 308.56 392.94 222.53 392.94 538.62 76.88 624.63 76.88"/></g></g></svg>