<svg id="圖層_1" data-name="圖層 1" xmlns="http://www.w3.org/2000/svg" xmlns:xlink="http://www.w3.org/1999/xlink" viewBox="0 0 720.86 476.79"><defs><style>.cls-1{mask:url(#mask);filter:url(#luminosity-noclip-13);}.cls-10,.cls-12,.cls-14,.cls-16,.cls-18,.cls-2,.cls-20,.cls-22,.cls-24,.cls-4,.cls-6,.cls-8{mix-blend-mode:multiply;}.cls-2{fill:url(#linear-gradient);}.cls-3{mask:url(#mask-2);filter:url(#luminosity-noclip-18);}.cls-4{fill:url(#linear-gradient-2);}.cls-5{mask:url(#mask-3);filter:url(#luminosity-noclip-19);}.cls-6{fill:url(#linear-gradient-3);}.cls-7{mask:url(#mask-4);filter:url(#luminosity-noclip-20);}.cls-8{fill:url(#linear-gradient-4);}.cls-9{mask:url(#mask-5);filter:url(#luminosity-noclip-21);}.cls-10{fill:url(#linear-gradient-5);}.cls-11{mask:url(#mask-6);filter:url(#luminosity-noclip-22);}.cls-12{fill:url(#linear-gradient-6);}.cls-13{mask:url(#mask-7);filter:url(#luminosity-noclip-14);}.cls-14{fill:url(#linear-gradient-7);}.cls-15{mask:url(#mask-8);filter:url(#luminosity-noclip-23);}.cls-16{fill:url(#linear-gradient-8);}.cls-17{mask:url(#mask-9);filter:url(#luminosity-noclip-24);}.cls-18{fill:url(#linear-gradient-9);}.cls-19{mask:url(#mask-10);filter:url(#luminosity-noclip-15);}.cls-20{fill:url(#linear-gradient-10);}.cls-21{mask:url(#mask-11);filter:url(#luminosity-noclip-16);}.cls-22{fill:url(#linear-gradient-11);}.cls-23{mask:url(#mask-12);filter:url(#luminosity-noclip-17);}.cls-24{fill:url(#linear-gradient-12);}.cls-25{opacity:0.54;}.cls-26{mask:url(#mask-13);}.cls-27{opacity:0.36;fill:url(#未命名漸層_63);}.cls-28{mask:url(#mask-14);}.cls-29{fill:url(#未命名漸層_63-2);}.cls-30{mask:url(#mask-15);}.cls-31{fill:url(#未命名漸層_53);}.cls-32{mask:url(#mask-16);}.cls-33{fill:url(#未命名漸層_63-3);}.cls-34{mask:url(#mask-17);}.cls-35{fill:url(#未命名漸層_63-4);}.cls-36{mask:url(#mask-18);}.cls-37{fill:url(#未命名漸層_53-2);}.cls-38{mask:url(#mask-19);}.cls-39{fill:url(#未命名漸層_63-5);}.cls-40{mask:url(#mask-20);}.cls-41{fill:url(#未命名漸層_63-6);}.cls-42{mask:url(#mask-21);}.cls-43{fill:url(#未命名漸層_63-7);}.cls-44{mask:url(#mask-22);}.cls-45{fill:url(#未命名漸層_63-8);}.cls-46{mask:url(#mask-23);}.cls-47{fill:url(#未命名漸層_63-9);}.cls-48{mask:url(#mask-24);}.cls-49{fill:url(#未命名漸層_63-10);}.cls-50{filter:url(#luminosity-noclip-12);}.cls-51{filter:url(#luminosity-noclip-11);}.cls-52{filter:url(#luminosity-noclip-10);}.cls-53{filter:url(#luminosity-noclip-9);}.cls-54{filter:url(#luminosity-noclip-8);}.cls-55{filter:url(#luminosity-noclip-7);}.cls-56{filter:url(#luminosity-noclip-6);}.cls-57{filter:url(#luminosity-noclip-5);}.cls-58{filter:url(#luminosity-noclip-4);}.cls-59{filter:url(#luminosity-noclip-3);}.cls-60{filter:url(#luminosity-noclip-2);}.cls-61{filter:url(#luminosity-noclip);}</style><filter id="luminosity-noclip" x="40.73" y="-8430" width="614.43" height="32766" filterUnits="userSpaceOnUse" color-interpolation-filters="sRGB"><feFlood flood-color="#fff" result="bg"/><feBlend in="SourceGraphic" in2="bg"/></filter><mask id="mask" x="40.73" y="-8430" width="614.43" height="32766" maskUnits="userSpaceOnUse"><g class="cls-61"/></mask><linearGradient id="linear-gradient" x1="-1330.89" y1="-220.14" x2="-716.47" y2="-220.14" gradientTransform="translate(-675.74 18.25) rotate(180)" gradientUnits="userSpaceOnUse"><stop offset="0" stop-color="#666"/><stop offset="1"/></linearGradient><filter id="luminosity-noclip-2" x="111.95" y="-8430" width="217.98" height="32766" filterUnits="userSpaceOnUse" color-interpolation-filters="sRGB"><feFlood flood-color="#fff" result="bg"/><feBlend in="SourceGraphic" in2="bg"/></filter><mask id="mask-2" x="111.95" y="-8430" width="217.98" height="32766" maskUnits="userSpaceOnUse"><g class="cls-60"/></mask><linearGradient id="linear-gradient-2" x1="-1005.67" y1="-53.35" x2="-787.69" y2="-53.35" gradientTransform="translate(-675.74 18.25) rotate(180)" gradientUnits="userSpaceOnUse"><stop offset="0"/><stop offset="1" stop-color="#666"/></linearGradient><filter id="luminosity-noclip-3" x="0" y="-8430" width="419.23" height="32766" filterUnits="userSpaceOnUse" color-interpolation-filters="sRGB"><feFlood flood-color="#fff" result="bg"/><feBlend in="SourceGraphic" in2="bg"/></filter><mask id="mask-3" x="0" y="-8430" width="419.23" height="32766" maskUnits="userSpaceOnUse"><g class="cls-59"/></mask><linearGradient id="linear-gradient-3" x1="-1094.97" y1="-186.76" x2="-675.74" y2="-186.76" xlink:href="#linear-gradient"/><filter id="luminosity-noclip-4" x="263.3" y="-8430" width="174.61" height="32766" filterUnits="userSpaceOnUse" color-interpolation-filters="sRGB"><feFlood flood-color="#fff" result="bg"/><feBlend in="SourceGraphic" in2="bg"/></filter><mask id="mask-4" x="263.3" y="-8430" width="174.61" height="32766" maskUnits="userSpaceOnUse"><g class="cls-58"/></mask><linearGradient id="linear-gradient-4" x1="-1113.64" y1="-333.3" x2="-939.03" y2="-333.3" xlink:href="#linear-gradient"/><filter id="luminosity-noclip-5" x="14.02" y="-8430" width="174.61" height="32766" filterUnits="userSpaceOnUse" color-interpolation-filters="sRGB"><feFlood flood-color="#fff" result="bg"/><feBlend in="SourceGraphic" in2="bg"/></filter><mask id="mask-5" x="14.02" y="-8430" width="174.61" height="32766" maskUnits="userSpaceOnUse"><g class="cls-57"/></mask><linearGradient id="linear-gradient-5" x1="-864.36" y1="-66.22" x2="-689.76" y2="-66.22" xlink:href="#linear-gradient"/><filter id="luminosity-noclip-6" x="416.87" y="-8430" width="174.61" height="32766" filterUnits="userSpaceOnUse" color-interpolation-filters="sRGB"><feFlood flood-color="#fff" result="bg"/><feBlend in="SourceGraphic" in2="bg"/></filter><mask id="mask-6" x="416.87" y="-8430" width="174.61" height="32766" maskUnits="userSpaceOnUse"><g class="cls-56"/></mask><linearGradient id="linear-gradient-6" x1="-1267.22" y1="-179.73" x2="-1092.61" y2="-179.73" xlink:href="#linear-gradient"/><filter id="luminosity-noclip-7" x="111.95" y="-8430" width="349.34" height="32766" filterUnits="userSpaceOnUse" color-interpolation-filters="sRGB"><feFlood flood-color="#fff" result="bg"/><feBlend in="SourceGraphic" in2="bg"/></filter><mask id="mask-7" x="111.95" y="-8430" width="349.34" height="32766" maskUnits="userSpaceOnUse"><g class="cls-55"/></mask><linearGradient id="linear-gradient-7" x1="-1137.03" y1="-232.49" x2="-787.69" y2="-232.49" xlink:href="#linear-gradient"/><filter id="luminosity-noclip-8" x="570.45" y="-8430" width="150.41" height="32766" filterUnits="userSpaceOnUse" color-interpolation-filters="sRGB"><feFlood flood-color="#fff" result="bg"/><feBlend in="SourceGraphic" in2="bg"/></filter><mask id="mask-8" x="570.45" y="-8430" width="150.41" height="32766" maskUnits="userSpaceOnUse"><g class="cls-54"/></mask><linearGradient id="linear-gradient-8" x1="-1396.59" y1="-38.26" x2="-1246.18" y2="-38.26" xlink:href="#linear-gradient"/><filter id="luminosity-noclip-9" x="204.4" y="-8430" width="332.46" height="32766" filterUnits="userSpaceOnUse" color-interpolation-filters="sRGB"><feFlood flood-color="#fff" result="bg"/><feBlend in="SourceGraphic" in2="bg"/></filter><mask id="mask-9" x="204.4" y="-8430" width="332.46" height="32766" maskUnits="userSpaceOnUse"><g class="cls-53"/></mask><linearGradient id="linear-gradient-9" x1="-1212.6" y1="-264.3" x2="-880.14" y2="-264.3" xlink:href="#linear-gradient"/><filter id="luminosity-noclip-10" x="401.29" y="-8430" width="173.43" height="32766" filterUnits="userSpaceOnUse" color-interpolation-filters="sRGB"><feFlood flood-color="#fff" result="bg"/><feBlend in="SourceGraphic" in2="bg"/></filter><mask id="mask-10" x="401.29" y="-8430" width="173.43" height="32766" maskUnits="userSpaceOnUse"><g class="cls-52"/></mask><linearGradient id="linear-gradient-10" x1="-1250.45" y1="-31.09" x2="-1077.03" y2="-31.09" xlink:href="#linear-gradient-2"/><filter id="luminosity-noclip-11" x="5.12" y="-8430" width="349.34" height="32766" filterUnits="userSpaceOnUse" color-interpolation-filters="sRGB"><feFlood flood-color="#fff" result="bg"/><feBlend in="SourceGraphic" in2="bg"/></filter><mask id="mask-11" x="5.12" y="-8430" width="349.34" height="32766" maskUnits="userSpaceOnUse"><g class="cls-51"/></mask><linearGradient id="linear-gradient-11" x1="-1030.2" y1="-294.81" x2="-680.85" y2="-294.81" xlink:href="#linear-gradient"/><filter id="luminosity-noclip-12" x="0" y="-8430" width="167.51" height="32766" filterUnits="userSpaceOnUse" color-interpolation-filters="sRGB"><feFlood flood-color="#fff" result="bg"/><feBlend in="SourceGraphic" in2="bg"/></filter><mask id="mask-12" x="0" y="-8430" width="167.51" height="32766" maskUnits="userSpaceOnUse"><g class="cls-50"/></mask><linearGradient id="linear-gradient-12" x1="-843.24" y1="-227.91" x2="-675.74" y2="-227.91" xlink:href="#linear-gradient"/><filter id="luminosity-noclip-13" x="40.73" y="0" width="614.43" height="476.79" filterUnits="userSpaceOnUse" color-interpolation-filters="sRGB"><feFlood flood-color="#fff" result="bg"/><feBlend in="SourceGraphic" in2="bg"/></filter><mask id="mask-13" x="40.73" y="0" width="614.43" height="476.79" maskUnits="userSpaceOnUse"><g class="cls-1"><polygon class="cls-2" points="40.73 476.79 418.88 98.69 517.56 0 655.15 0 178.28 476.79 40.73 476.79"/></g></mask><linearGradient id="未命名漸層_63" x1="-1330.89" y1="-220.14" x2="-716.47" y2="-220.14" gradientTransform="translate(-675.74 18.25) rotate(180)" gradientUnits="userSpaceOnUse"><stop offset="0" stop-color="#fff"/><stop offset="1" stop-color="#33c7e2"/></linearGradient><filter id="luminosity-noclip-14" x="111.95" y="113.45" width="349.34" height="274.6" filterUnits="userSpaceOnUse" color-interpolation-filters="sRGB"><feFlood flood-color="#fff" result="bg"/><feBlend in="SourceGraphic" in2="bg"/></filter><mask id="mask-14" x="111.95" y="113.45" width="349.34" height="274.6" maskUnits="userSpaceOnUse"><g class="cls-13"><polygon class="cls-14" points="111.95 388.05 386.55 113.45 461.3 113.45 186.68 388.05 111.95 388.05"/></g></mask><linearGradient id="未命名漸層_63-2" x1="-1137.03" y1="-232.49" x2="-787.69" y2="-232.49" xlink:href="#未命名漸層_63"/><filter id="luminosity-noclip-15" x="401.29" y="0" width="173.43" height="98.69" filterUnits="userSpaceOnUse" color-interpolation-filters="sRGB"><feFlood flood-color="#fff" result="bg"/><feBlend in="SourceGraphic" in2="bg"/></filter><mask id="mask-15" x="401.29" y="0" width="173.43" height="98.69" maskUnits="userSpaceOnUse"><g class="cls-19"><polygon class="cls-20" points="401.29 98.69 499.98 0 574.72 0 476.03 98.69 401.29 98.69"/></g></mask><linearGradient id="未命名漸層_53" x1="-1250.45" y1="-31.09" x2="-1077.03" y2="-31.09" gradientTransform="translate(-675.74 18.25) rotate(180)" gradientUnits="userSpaceOnUse"><stop offset="0" stop-color="#33c7e2"/><stop offset="1" stop-color="#fff"/></linearGradient><filter id="luminosity-noclip-16" x="5.12" y="175.77" width="349.34" height="274.6" filterUnits="userSpaceOnUse" color-interpolation-filters="sRGB"><feFlood flood-color="#fff" result="bg"/><feBlend in="SourceGraphic" in2="bg"/></filter><mask id="mask-16" x="5.12" y="175.77" width="349.34" height="274.6" maskUnits="userSpaceOnUse"><g class="cls-21"><polygon class="cls-22" points="5.12 450.37 279.72 175.77 354.46 175.77 79.84 450.37 5.12 450.37"/></g></mask><linearGradient id="未命名漸層_63-3" x1="-1030.2" y1="-294.81" x2="-680.85" y2="-294.81" xlink:href="#未命名漸層_63"/><filter id="luminosity-noclip-17" x="0" y="162.43" width="167.51" height="167.46" filterUnits="userSpaceOnUse" color-interpolation-filters="sRGB"><feFlood flood-color="#fff" result="bg"/><feBlend in="SourceGraphic" in2="bg"/></filter><mask id="mask-17" x="0" y="162.43" width="167.51" height="167.46" maskUnits="userSpaceOnUse"><g class="cls-23"><polygon class="cls-24" points="0 329.89 0 255.2 92.77 162.43 167.51 162.43 0 329.89"/></g></mask><linearGradient id="未命名漸層_63-4" x1="-843.24" y1="-227.91" x2="-675.74" y2="-227.91" xlink:href="#未命名漸層_63"/><filter id="luminosity-noclip-18" x="111.95" y="0" width="217.98" height="143.2" filterUnits="userSpaceOnUse" color-interpolation-filters="sRGB"><feFlood flood-color="#fff" result="bg"/><feBlend in="SourceGraphic" in2="bg"/></filter><mask id="mask-18" x="111.95" y="0" width="217.98" height="143.2" maskUnits="userSpaceOnUse"><g class="cls-3"><polygon class="cls-4" points="111.95 143.2 255.2 0 329.94 0 186.69 143.2 111.95 143.2"/></g></mask><linearGradient id="未命名漸層_53-2" x1="-1005.67" y1="-53.35" x2="-787.69" y2="-53.35" xlink:href="#未命名漸層_53"/><filter id="luminosity-noclip-19" x="0" y="0" width="419.23" height="410.02" filterUnits="userSpaceOnUse" color-interpolation-filters="sRGB"><feFlood flood-color="#fff" result="bg"/><feBlend in="SourceGraphic" in2="bg"/></filter><mask id="mask-19" x="0" y="0" width="419.23" height="410.02" maskUnits="userSpaceOnUse"><g class="cls-5"><polygon class="cls-6" points="0 410.02 0 281.6 119.16 162.43 138.44 143.2 281.64 0 419.23 0 9.13 410.02 0 410.02"/></g></mask><linearGradient id="未命名漸層_63-5" x1="-1094.97" y1="-186.76" x2="-675.74" y2="-186.76" xlink:href="#未命名漸層_63"/><filter id="luminosity-noclip-20" x="263.3" y="282.93" width="174.61" height="137.25" filterUnits="userSpaceOnUse" color-interpolation-filters="sRGB"><feFlood flood-color="#fff" result="bg"/><feBlend in="SourceGraphic" in2="bg"/></filter><mask id="mask-20" x="263.3" y="282.93" width="174.61" height="137.25" maskUnits="userSpaceOnUse"><g class="cls-7"><polygon class="cls-8" points="263.3 420.18 400.55 282.93 437.91 282.93 300.65 420.18 263.3 420.18"/></g></mask><linearGradient id="未命名漸層_63-6" x1="-1113.64" y1="-333.3" x2="-939.03" y2="-333.3" xlink:href="#未命名漸層_63"/><filter id="luminosity-noclip-21" x="14.02" y="15.85" width="174.61" height="137.25" filterUnits="userSpaceOnUse" color-interpolation-filters="sRGB"><feFlood flood-color="#fff" result="bg"/><feBlend in="SourceGraphic" in2="bg"/></filter><mask id="mask-21" x="14.02" y="15.85" width="174.61" height="137.25" maskUnits="userSpaceOnUse"><g class="cls-9"><polygon class="cls-10" points="14.02 153.1 151.27 15.85 188.63 15.85 51.37 153.1 14.02 153.1"/></g></mask><linearGradient id="未命名漸層_63-7" x1="-864.36" y1="-66.22" x2="-689.76" y2="-66.22" xlink:href="#未命名漸層_63"/><filter id="luminosity-noclip-22" x="416.87" y="129.36" width="174.61" height="137.25" filterUnits="userSpaceOnUse" color-interpolation-filters="sRGB"><feFlood flood-color="#fff" result="bg"/><feBlend in="SourceGraphic" in2="bg"/></filter><mask id="mask-22" x="416.87" y="129.36" width="174.61" height="137.25" maskUnits="userSpaceOnUse"><g class="cls-11"><polygon class="cls-12" points="416.87 266.61 554.12 129.36 591.48 129.36 454.22 266.61 416.87 266.61"/></g></mask><linearGradient id="未命名漸層_63-8" x1="-1267.22" y1="-179.73" x2="-1092.61" y2="-179.73" xlink:href="#未命名漸層_63"/><filter id="luminosity-noclip-23" x="570.45" y="0" width="150.41" height="113.02" filterUnits="userSpaceOnUse" color-interpolation-filters="sRGB"><feFlood flood-color="#fff" result="bg"/><feBlend in="SourceGraphic" in2="bg"/></filter><mask id="mask-23" x="570.45" y="0" width="150.41" height="113.02" maskUnits="userSpaceOnUse"><g class="cls-15"><polygon class="cls-16" points="570.45 113.02 683.47 0 720.86 0 607.79 113.02 570.45 113.02"/></g></mask><linearGradient id="未命名漸層_63-9" x1="-1396.59" y1="-38.26" x2="-1246.18" y2="-38.26" xlink:href="#未命名漸層_63"/><filter id="luminosity-noclip-24" x="204.4" y="151.89" width="332.46" height="261.33" filterUnits="userSpaceOnUse" color-interpolation-filters="sRGB"><feFlood flood-color="#fff" result="bg"/><feBlend in="SourceGraphic" in2="bg"/></filter><mask id="mask-24" x="204.4" y="151.89" width="332.46" height="261.33" maskUnits="userSpaceOnUse"><g class="cls-17"><polygon class="cls-18" points="204.41 413.22 465.73 151.89 536.87 151.89 275.52 413.22 204.41 413.22"/></g></mask><linearGradient id="未命名漸層_63-10" x1="-1212.6" y1="-264.3" x2="-880.14" y2="-264.3" xlink:href="#未命名漸層_63"/></defs><title>Login L</title><g class="cls-25"><g class="cls-26"><polygon class="cls-27" points="40.73 476.79 418.88 98.69 517.56 0 655.15 0 178.28 476.79 40.73 476.79"/></g><g class="cls-28"><polygon class="cls-29" points="111.95 388.05 386.55 113.45 461.3 113.45 186.68 388.05 111.95 388.05"/></g><g class="cls-30"><polygon class="cls-31" points="401.29 98.69 499.98 0 574.72 0 476.03 98.69 401.29 98.69"/></g><g class="cls-32"><polygon class="cls-33" points="5.12 450.37 279.72 175.77 354.46 175.77 79.84 450.37 5.12 450.37"/></g><g class="cls-34"><polygon class="cls-35" points="0 329.89 0 255.2 92.77 162.43 167.51 162.43 0 329.89"/></g><g class="cls-36"><polygon class="cls-37" points="111.95 143.2 255.2 0 329.94 0 186.69 143.2 111.95 143.2"/></g><g class="cls-38"><polygon class="cls-39" points="0 410.02 0 281.6 119.16 162.43 138.44 143.2 281.64 0 419.23 0 9.13 410.02 0 410.02"/></g><g class="cls-40"><polygon class="cls-41" points="263.3 420.18 400.55 282.93 437.91 282.93 300.65 420.18 263.3 420.18"/></g><g class="cls-42"><polygon class="cls-43" points="14.02 153.1 151.27 15.85 188.63 15.85 51.37 153.1 14.02 153.1"/></g><g class="cls-44"><polygon class="cls-45" points="416.87 266.61 554.12 129.36 591.48 129.36 454.22 266.61 416.87 266.61"/></g><g class="cls-46"><polygon class="cls-47" points="570.45 113.02 683.47 0 720.86 0 607.79 113.02 570.45 113.02"/></g><g class="cls-48"><polygon class="cls-49" points="204.41 413.22 465.73 151.89 536.87 151.89 275.52 413.22 204.41 413.22"/></g></g></svg>